<!--
    Generated by Nuxt module "My Icons" v1.0.1 at 2025-01-18T09:33:25.942Z
    https://github.com/Gwynerva/nuxt-my-icons

    by Gwynerva
    https://github.com/Gwynerva

    Have fun!
-->
<svg xmlns="http://www.w3.org/2000/svg">
    <symbol id="__missing" viewBox="0 0 384 512">
        <path d="M64 390.3L153.5 256 64 121.7l0 268.6zM102.5 448l179.1 0L192 313.7 102.5 448zm128-192L320 390.3l0-268.6L230.5 256zM281.5 64L102.5 64 192 198.3 281.5 64zM0 48C0 21.5 21.5 0 48 0L336 0c26.5 0 48 21.5 48 48l0 416c0 26.5-21.5 48-48 48L48 512c-26.5 0-48-21.5-48-48L0 48z" />
    </symbol>
    <symbol id="house" viewBox="0 0 576 512">
        <path d="M575.8 255.5c0 18-15 32.1-32 32.1l-32 0 .7 160.2c0 2.7-.2 5.4-.5 8.1l0 16.2c0 22.1-17.9 40-40 40l-16 0c-1.1 0-2.2 0-3.3-.1c-1.4 .1-2.8 .1-4.2 .1L416 512l-24 0c-22.1 0-40-17.9-40-40l0-24 0-64c0-17.7-14.3-32-32-32l-64 0c-17.7 0-32 14.3-32 32l0 64 0 24c0 22.1-17.9 40-40 40l-24 0-31.9 0c-1.5 0-3-.1-4.5-.2c-1.2 .1-2.4 .2-3.6 .2l-16 0c-22.1 0-40-17.9-40-40l0-112c0-.9 0-1.9 .1-2.8l0-69.7-32 0c-18 0-32-14-32-32.1c0-9 3-17 10-24L266.4 8c7-7 15-8 22-8s15 2 21 7L564.8 231.5c8 7 12 15 11 24z" />
    </symbol>
    <symbol id="human" viewBox="0 0 24 24">
        <path d="M12 4.5A2.25 2.25 0 1 0 12 0a2.25 2.25 0 0 0 0 4.5M21.75 7V5.5H2.25V7l6.5 1.75L9 12L4.75 22.75l1.5.75l5.745-9h.01l5.745 9l1.5-.75L15 12l.25-3.25z" />
    </symbol>
    <symbol id="plus" viewBox="0 0 32 32">
        <g fill="none">
            <path fill="url(#fluentColorAddCircle320)" d="M30 16c0 7.732-6.268 14-14 14S2 23.732 2 16S8.268 2 16 2s14 6.268 14 14" />
            <path fill="url(#fluentColorAddCircle321)" d="M15 10a1 1 0 1 1 2 0v5h5a1 1 0 1 1 0 2h-5v5a1 1 0 1 1-2 0v-5h-5a1 1 0 1 1 0-2h5z" />
            <defs>
                <linearGradient id="fluentColorAddCircle320" x1="3" x2="22.323" y1="7.25" y2="27.326" gradientUnits="userSpaceOnUse">
                    <stop stop-color="#52D17C" />
                    <stop offset="1" stop-color="#22918B" />
                </linearGradient>
                <linearGradient id="fluentColorAddCircle321" x1="11.625" x2="15.921" y1="10.428" y2="25.592" gradientUnits="userSpaceOnUse">
                    <stop stop-color="#fff" />
                    <stop offset="1" stop-color="#E3FFD9" />
                </linearGradient>
            </defs>
        </g>
    </symbol>
    <symbol id="arrow/left" viewBox="0 0 24 24">
        <path fill="currentColor" d="m7.825 13l4.9 4.9q.3.3.288.7t-.313.7q-.3.275-.7.288t-.7-.288l-6.6-6.6q-.15-.15-.213-.325T4.426 12t.063-.375t.212-.325l6.6-6.6q.275-.275.688-.275t.712.275q.3.3.3.713t-.3.712L7.825 11H19q.425 0 .713.288T20 12t-.288.713T19 13z" />
    </symbol>
</svg>